<?xml version="1.0" encoding="UTF-8" standalone="no"?>
<svg
   width="1297.528"
   height="214.81812"
   viewBox="0 0 343.30426 56.837296"
   version="1.1"
   id="svg8"
   inkscape:version="1.3 (0e150ed6c4, 2023-07-21)"
   sodipodi:docname="Logo.svg"
   inkscape:export-filename="..\..\Exports\Header.png"
   inkscape:export-xdpi="77.513702"
   inkscape:export-ydpi="77.513702"
   xml:space="preserve"
   xmlns:inkscape="http://www.inkscape.org/namespaces/inkscape"
   xmlns:sodipodi="http://sodipodi.sourceforge.net/DTD/sodipodi-0.dtd"
   xmlns:xlink="http://www.w3.org/1999/xlink"
   xmlns="http://www.w3.org/2000/svg"
   xmlns:svg="http://www.w3.org/2000/svg"
   xmlns:rdf="http://www.w3.org/1999/02/22-rdf-syntax-ns#"
   xmlns:cc="http://creativecommons.org/ns#"
   xmlns:dc="http://purl.org/dc/elements/1.1/"><title
     id="title7709">RadikAlice branding all assets</title><defs
     id="defs2"><linearGradient
       id="linearGradient2025"><stop
         style="stop-color:#ff0000;stop-opacity:0;"
         offset="0"
         id="stop2023" /><stop
         style="stop-color:#ff0000;stop-opacity:1;"
         offset="0.69722223"
         id="stop2021" /></linearGradient><linearGradient
       xlink:href="#linearGradient2035"
       id="linearGradient2037"
       x1="-118.39011"
       y1="72.832138"
       x2="-84.61705"
       y2="102.93337"
       gradientUnits="userSpaceOnUse" /><linearGradient
       id="linearGradient2035"><stop
         style="stop-color:#ff0000;stop-opacity:0;"
         offset="0"
         id="stop2033" /><stop
         style="stop-color:#ff0000;stop-opacity:1;"
         offset="1"
         id="stop2031" /></linearGradient></defs><sodipodi:namedview
     id="base"
     pagecolor="#000000"
     bordercolor="#666666"
     borderopacity="1.0"
     inkscape:pageopacity="0"
     inkscape:pageshadow="2"
     inkscape:zoom="0.52253209"
     inkscape:cx="648.76398"
     inkscape:cy="108.12733"
     inkscape:document-units="px"
     inkscape:current-layer="layer3"
     inkscape:document-rotation="0"
     showgrid="false"
     units="px"
     inkscape:window-width="1280"
     inkscape:window-height="1001"
     inkscape:window-x="-8"
     inkscape:window-y="-8"
     inkscape:window-maximized="1"
     inkscape:snap-page="true"
     showguides="false"
     inkscape:guide-bbox="true"
     inkscape:snap-others="true"
     inkscape:snap-to-guides="false"
     inkscape:snap-nodes="true"
     inkscape:showpageshadow="2"
     inkscape:pagecheckerboard="true"
     inkscape:deskcolor="#d1d1d1"
     inkscape:lockguides="true"
     inkscape:export-bgcolor="#000000ff"><sodipodi:guide
       position="237.34956,90.552101"
       orientation="1,0"
       id="guide140"
       inkscape:locked="true" /><sodipodi:guide
       position="274.22692,161.90486"
       orientation="0,-1"
       id="guide154"
       inkscape:locked="true" /><sodipodi:guide
       position="246.30303,64.110126"
       orientation="1,0"
       id="guide100"
       inkscape:locked="true" /><sodipodi:guide
       position="287.83087,164.05285"
       orientation="0,-1"
       id="guide102"
       inkscape:locked="true" /><inkscape:page
       x="1.3906622e-07"
       y="2.102483e-06"
       width="343.30426"
       height="56.837296"
       id="page1"
       margin="0"
       bleed="0" /></sodipodi:namedview><metadata
     id="metadata5"><rdf:RDF><cc:Work
         rdf:about=""><dc:format>image/svg+xml</dc:format><dc:type
           rdf:resource="http://purl.org/dc/dcmitype/StillImage" /><cc:license
           rdf:resource="http://creativecommons.org/licenses/by-sa/4.0/" /><dc:title>RadikAlice branding all assets</dc:title><dc:description>&#10;&#10;-RadikAlice</dc:description></cc:Work><cc:License
         rdf:about="http://creativecommons.org/licenses/by-sa/4.0/"><cc:permits
           rdf:resource="http://creativecommons.org/ns#Reproduction" /><cc:permits
           rdf:resource="http://creativecommons.org/ns#Distribution" /><cc:requires
           rdf:resource="http://creativecommons.org/ns#Notice" /><cc:requires
           rdf:resource="http://creativecommons.org/ns#Attribution" /><cc:permits
           rdf:resource="http://creativecommons.org/ns#DerivativeWorks" /><cc:requires
           rdf:resource="http://creativecommons.org/ns#ShareAlike" /></cc:License></rdf:RDF></metadata><path
     id="path4003"
     style="display:inline;fill:#ff0000;fill-opacity:1;stroke:none;stroke-width:1.42347px;stroke-linecap:butt;stroke-linejoin:miter;stroke-opacity:1"
     inkscape:label="Border"
     d="M 69.010631,1.0261321e-5 65.092481,5.7623503 44.998991,6.1180003 27.287561,53.09041 h 9.80121 l -1.47022,3.7469 H 171.22644 l 2.63015,-3.7469 h 124.53476 l 16.5376,-46.5194097 -107.35682,0.67766 2.53208,-7.248650038679 z"
     sodipodi:nodetypes="ccccccccccccc"
     inkscape:highlight-color="#ff0000"
     inkscape:export-filename="..\..\Exports\Logo-Me.png"
     inkscape:export-xdpi="77.513702"
     inkscape:export-ydpi="77.513702" /><g
     inkscape:groupmode="layer"
     id="layer3"
     inkscape:label="Logo"
     style="display:inline"
     inkscape:highlight-color="#ff0000"
     transform="translate(-168.46114,-144.50168)"><g
       id="g6167"
       transform="matrix(0.3867423,0,0,0.3867423,229.35396,127.32559)"
       style="display:inline"
       inkscape:label="bars"><path
         id="path4114-8"
         style="display:inline;fill:#ff0000;fill-opacity:1;stroke:none;stroke-width:3.799;stroke-linecap:butt;stroke-linejoin:miter;stroke-dasharray:none;stroke-opacity:1"
         d="m -96.925403,181.81315 19.48296,-50.84632 27.786572,-72.516965 -29.744141,0.125 -43.681638,123.238285 z m -35.425777,0 19.48296,-50.84632 27.78657,-72.516965 -29.74414,0.125 -43.68164,123.238285 z"
         class="UnoptimicedTransforms"
         transform="rotate(180,285.86207,120.13151)" /><path
         id="path1225-6"
         style="display:inline;fill:#ff0000;fill-opacity:1;stroke:none;stroke-width:3.799;stroke-linecap:butt;stroke-linejoin:miter;stroke-dasharray:none;stroke-opacity:1"
         d="m -96.925403,181.81315 47.269532,-123.363285 -29.744141,0.125 -43.681638,123.238285 z m -35.425777,0 47.26953,-123.363285 -29.74414,0.125 -43.68164,123.238285 z"
         class="UnoptimicedTransforms"
         transform="translate(1.056819)" /></g><g
       id="g7379"
       inkscape:label="stroke"
       style="display:inline"><path
         d="m 241.62801,190.1229 -9.25531,0.1038 -4.79801,-6.45755 10.77932,-0.031 z"
         style="font-style:italic;font-weight:900;font-size:112.212px;line-height:1.25;font-family:Montserrat;-inkscape-font-specification:'Montserrat Heavy Italic';letter-spacing:0px;word-spacing:-3.72px;display:inline;fill:none;stroke:#000000;stroke-width:2.4532;stroke-dasharray:none"
         id="path2663"
         sodipodi:nodetypes="ccccc" /><path
         d="m 223.75897,190.37344 h 10.57526 l -6.1689,-9.06451 c 3.52508,-1.8045 5.53942,-4.99386 5.53942,-9.23236 0,-6.79838 -5.20371,-11.07884 -13.38695,-11.07884 h -14.1423 v 29.37571 h 9.90382 v -7.38588 h 2.68577 z m -0.0419,-18.29687 c 0,2.14023 -1.30092,3.44115 -4.02867,3.44115 h -3.60901 v -6.8823 h 3.60901 c 2.72775,0 4.02867,1.30092 4.02867,3.44115 z"
         id="path4996"
         style="font-weight:900;font-size:112px;line-height:1.25;font-family:Montserrat;-inkscape-font-specification:'Montserrat Heavy';font-variant-ligatures:none;display:inline;fill:none;stroke:#000000;stroke-width:2.25168;stroke-dasharray:none;paint-order:stroke markers fill" /><path
         id="path4998"
         style="font-weight:900;font-size:112px;line-height:1.25;font-family:Montserrat;-inkscape-font-specification:'Montserrat Heavy';font-variant-ligatures:none;display:inline;fill:none;fill-opacity:1;stroke:#000000;stroke-width:2.25151;stroke-dasharray:none;stroke-opacity:1;paint-order:stroke fill markers"
         d="m 246.34212,160.99759 -12.84118,29.37585 h 10.072 l 4.7129,-12.25354 h -0.0128 l 2.85336,-7.38622 7.1e-4,7.5e-4 0.15442,0.4003 2.69894,6.9852 h -0.0127 l 4.71217,12.25354 h 10.23959 l -12.8412,-29.37588 z" /><path
         d="m 263.76992,190.48587 h 14.47803 c 9.81988,0 16.5763,-5.5814 16.5763,-14.68788 0,-9.10647 -6.75642,-14.68785 -16.5763,-14.68785 h -14.47803 z m 9.90382,-7.72163 v -13.93249 h 4.15456 c 4.15457,0 7.0082,2.47596 7.0082,6.96624 0,4.49031 -2.85363,6.96625 -7.0082,6.96625 z"
         id="path5000"
         style="font-weight:900;font-size:112px;line-height:1.25;font-family:Montserrat;-inkscape-font-specification:'Montserrat Heavy';font-variant-ligatures:none;display:inline;fill:none;stroke:#000000;stroke-width:2.25168;stroke-dasharray:none;paint-order:stroke markers fill"
         sodipodi:nodetypes="csssccccsssc" /><path
         d="m 298.43328,190.48587 h 9.90381 v -29.37573 h -9.90381 z"
         id="path5002"
         style="font-weight:900;font-size:112px;line-height:1.25;font-family:Montserrat;-inkscape-font-specification:'Montserrat Heavy';font-variant-ligatures:none;display:inline;fill:none;stroke:#000000;stroke-width:2.25168;stroke-dasharray:none;paint-order:stroke markers fill" /><path
         d="m 332.42519,190.48587 h 11.45653 l -12.3378,-16.45042 11.75028,-12.92531 h -10.78507 l -9.65203,10.65918 v -10.65918 h -9.73595 v 29.37573 h 9.73595 v -7.26 l 2.22417,-2.47596 z"
         id="path5004"
         style="font-weight:900;font-size:112px;line-height:1.25;font-family:Montserrat;-inkscape-font-specification:'Montserrat Heavy';font-variant-ligatures:none;display:inline;fill:none;stroke:#000000;stroke-width:2.25168;stroke-dasharray:none;paint-order:stroke markers fill" /><path
         d="m 379.31391,190.5607 h 23.16485 v -7.67965 h -13.26104 v -21.69608 h -9.90381 z"
         style="font-weight:900;font-size:112px;line-height:1.25;font-family:Montserrat;-inkscape-font-specification:'Montserrat Heavy';font-variant-ligatures:none;letter-spacing:0px;display:inline;fill:none;stroke:#000000;stroke-width:2.25168;stroke-dasharray:none;paint-order:stroke markers fill"
         id="path5006" /><path
         d="m 405.95591,190.5607 h 9.90381 v -29.37573 h -9.90381 z"
         style="font-weight:900;font-size:112px;line-height:1.25;font-family:Montserrat;-inkscape-font-specification:'Montserrat Heavy';font-variant-ligatures:none;letter-spacing:0px;display:inline;fill:none;stroke:#000000;stroke-width:2.25168;stroke-dasharray:none;paint-order:stroke markers fill"
         id="path5008" /><path
         d="m 461.60192,183.09088 v -3.86081 h 12.42174 v -7.13411 h -12.42174 v -3.44117 h 14.1423 v -7.46982 h -23.87825 v 29.37573 h 24.42381 v -7.46982 z"
         style="font-weight:900;font-size:112px;line-height:1.25;font-family:Montserrat;-inkscape-font-specification:'Montserrat Heavy';font-variant-ligatures:none;letter-spacing:0px;display:inline;fill:none;stroke:#000000;stroke-width:2.25168;stroke-dasharray:none;paint-order:stroke markers fill"
         id="path5012" /><path
         id="path5567"
         style="font-weight:900;font-size:112px;line-height:1.25;font-family:Montserrat;-inkscape-font-specification:'Montserrat Heavy';font-variant-ligatures:none;display:inline;fill:none;fill-opacity:1;stroke:#000000;stroke-width:2.25151;stroke-dasharray:none;stroke-opacity:1;paint-order:stroke fill markers"
         d="m 353.5034,161.10994 -12.8412,29.37589 h 10.072 l 4.7129,-12.25354 h -0.0127 l 2.85335,-7.38626 7.5e-4,7.5e-4 0.15442,0.40031 2.69895,6.98521 h -0.0127 l 4.71218,12.25354 h 10.2396 l -12.84119,-29.3759 -4.97079,-11.24071 z"
         sodipodi:nodetypes="ccccccccccccccc" /><path
         d="m 435.83524,191.23214 c 5.74924,0 10.28149,-2.09826 13.1771,-5.87513 l -6.25282,-5.5814 c -1.72059,2.18221 -3.77688,3.44117 -6.4207,3.44117 -4.1126,0 -6.88231,-2.85365 -6.88231,-7.34394 0,-4.4903 2.76971,-7.34394 6.88231,-7.34394 2.64382,0 4.70011,1.25896 6.4207,3.44116 l 6.25282,-5.58139 c -2.89561,-3.77688 -7.42786,-5.87514 -13.1771,-5.87514 -9.4422,0 -16.36647,6.33676 -16.36647,15.35931 0,9.02254 6.92427,15.3593 16.36647,15.3593 z"
         style="font-weight:900;font-size:112px;line-height:1.25;font-family:Montserrat;-inkscape-font-specification:'Montserrat Heavy';font-variant-ligatures:none;letter-spacing:0px;display:inline;fill:none;stroke:#000000;stroke-width:2.25168;stroke-dasharray:none;paint-order:stroke markers fill"
         id="path5010" /></g><g
       id="g8126"
       inkscape:label="spikes"
       style="display:inline"><path
         sodipodi:type="star"
         style="fill:#ffffff;fill-opacity:1;stroke:#000000;stroke-width:3.98;stroke-miterlimit:6.6;stroke-dasharray:none;stroke-opacity:1;paint-order:stroke fill markers"
         id="path22640"
         inkscape:flatsided="false"
         sodipodi:sides="2"
         sodipodi:cx="233.55362"
         sodipodi:cy="150.26402"
         sodipodi:r1="17.436428"
         sodipodi:r2="4.9733787"
         sodipodi:arg1="1.6204325"
         sodipodi:arg2="3.1912288"
         inkscape:rounded="7.2858386e-17"
         inkscape:randomized="0"
         d="m 232.6885,167.67898 -4.10213,-17.66172 5.83237,-17.16819 4.10213,17.66171 z"
         inkscape:transform-center-x="1.6616997e-06"
         inkscape:transform-center-y="-2.6671227e-06"
         transform="matrix(0.35665497,-0.35665497,0.35665497,0.35665497,71.79347,192.63292)" /><path
         sodipodi:nodetypes="cccc"
         id="path9669"
         d="m 241.22493,181.71808 c -0.48387,4.65172 -2.65996,12.88367 -2.65996,12.88367 0,0 6.77884,-6.92783 6.27996,-12.27483 z"
         style="display:inline;fill:#ffffff;fill-opacity:1;stroke:#000000;stroke-width:0.68097px;stroke-linecap:butt;stroke-linejoin:miter;stroke-opacity:1" /><path
         sodipodi:nodetypes="cccc"
         id="path9671"
         d="m 260.62799,181.71808 c 0.48387,4.65172 2.65995,12.88367 2.65995,12.88367 0,0 -6.77883,-6.92783 -6.27995,-12.27483 z"
         style="display:inline;fill:#ffffff;fill-opacity:1;stroke:#000000;stroke-width:0.68097px;stroke-linecap:butt;stroke-linejoin:miter;stroke-opacity:1" /><path
         sodipodi:nodetypes="cccc"
         id="path11791"
         d="m 348.83632,182.92382 c -1.67135,4.36798 -5.90387,11.75621 -5.90387,11.75621 0,0 8.34092,-4.93729 9.24294,-10.2312 z"
         style="display:inline;fill:#ffffff;fill-opacity:1;stroke:#000000;stroke-width:0.68097px;stroke-linecap:butt;stroke-linejoin:miter;stroke-opacity:1" /><path
         sodipodi:nodetypes="cccc"
         id="path12095"
         d="m 469.56258,161.10309 c 4.65172,-0.48387 12.88366,-2.65996 12.88366,-2.65996 0,0 -6.92784,6.77884 -12.27483,6.27997 z"
         style="display:inline;fill:#ffffff;fill-opacity:1;stroke:#000000;stroke-width:0.68097px;stroke-linecap:butt;stroke-linejoin:miter;stroke-opacity:1" /><path
         sodipodi:nodetypes="cccc"
         id="path12097"
         d="m 469.56258,183.58451 c 4.65172,-0.48387 12.88366,-2.65996 12.88366,-2.65996 0,0 -6.92784,6.77884 -12.27483,6.27997 z"
         style="display:inline;fill:#ffffff;fill-opacity:1;stroke:#000000;stroke-width:0.68097px;stroke-linecap:butt;stroke-linejoin:miter;stroke-opacity:1" /><path
         style="display:inline;fill:#ffffff;fill-opacity:1;stroke:#000000;stroke-width:0.5962;stroke-linecap:butt;stroke-linejoin:miter;stroke-dasharray:none;stroke-opacity:1"
         d="m 406.65841,165.89169 c 0,0 3.77174,-0.10352 3.14217,-10.49132 4.72177,5.50871 3.8396,8.99256 3.8396,8.99256 v 5.79449 h -7.12273 z"
         id="path24132"
         sodipodi:nodetypes="cccccc" /><path
         sodipodi:type="star"
         style="fill:#ffffff;fill-opacity:1;stroke:#000000;stroke-width:3.98;stroke-miterlimit:6.6;stroke-dasharray:none;stroke-opacity:1;paint-order:stroke fill markers"
         id="path23476"
         inkscape:flatsided="false"
         sodipodi:sides="2"
         sodipodi:cx="233.55362"
         sodipodi:cy="150.26402"
         sodipodi:r1="17.436428"
         sodipodi:r2="4.9733787"
         sodipodi:arg1="1.6204325"
         sodipodi:arg2="3.1912288"
         inkscape:rounded="7.2858386e-17"
         inkscape:randomized="0"
         d="m 232.6885,167.67898 -4.10213,-17.66172 5.83237,-17.16819 4.10213,17.66171 z"
         inkscape:transform-center-x="1.6616997e-06"
         inkscape:transform-center-y="-2.6671227e-06"
         transform="matrix(0.35665497,-0.35665497,0.35665497,0.35665497,128.94367,192.63292)" /><path
         sodipodi:type="star"
         style="fill:#ffffff;fill-opacity:1;stroke:#000000;stroke-width:3.98;stroke-miterlimit:6.6;stroke-dasharray:none;stroke-opacity:1;paint-order:stroke fill markers"
         id="path27110"
         inkscape:flatsided="false"
         sodipodi:sides="2"
         sodipodi:cx="233.55362"
         sodipodi:cy="150.26402"
         sodipodi:r1="17.436428"
         sodipodi:r2="4.9733787"
         sodipodi:arg1="1.6204325"
         sodipodi:arg2="3.1912288"
         inkscape:rounded="7.2858386e-17"
         inkscape:randomized="0"
         d="m 232.6885,167.67898 -4.10213,-17.66172 5.83237,-17.16819 4.10213,17.66171 z"
         inkscape:transform-center-y="3.9898768e-06"
         transform="matrix(-0.35310284,0.36017208,0.36017208,0.35310284,409.3554,25.689125)"
         inkscape:transform-center-x="-9.022343e-06" /><path
         style="display:inline;fill:#ffffff;fill-opacity:1;stroke:#000000;stroke-width:0.5962;stroke-linecap:butt;stroke-linejoin:miter;stroke-dasharray:none;stroke-opacity:1"
         d="m 406.65841,185.05569 c 0,0 3.77174,0.10352 3.14217,10.49132 4.72177,-5.50871 3.8396,-8.99256 3.8396,-8.99256 v -5.79449 h -7.12273 z"
         id="path3981"
         sodipodi:nodetypes="cccccc" /><path
         sodipodi:nodetypes="cccc"
         id="path11789"
         d="m 369.69463,183.67319 c 1.67134,4.36798 5.90386,11.75621 5.90386,11.75621 0,0 -8.34091,-4.93727 -9.24292,-10.23119 z"
         style="display:inline;fill:#ffffff;fill-opacity:1;stroke:#000000;stroke-width:0.68097px;stroke-linecap:butt;stroke-linejoin:miter;stroke-opacity:1" /><path
         style="display:inline;fill:#ffffff;fill-opacity:1;stroke:#000000;stroke-width:0.5962;stroke-linecap:butt;stroke-linejoin:miter;stroke-dasharray:none;stroke-opacity:1"
         d="m 208.07255,185.83673 c 0,0 1.52361,0.10352 0.89404,10.49134 4.72175,-5.50872 3.8396,-8.99257 3.8396,-8.99257 v -5.7945 h -4.87461 z"
         id="path13492"
         sodipodi:nodetypes="cccccc" /></g><g
       id="g11710"
       style="display:inline;fill:#ffffff;fill-opacity:1"
       inkscape:label="fill-header"><path
         d="m 223.75896,190.37344 h 10.57525 l -6.1689,-9.06451 c 3.52509,-1.8045 5.53942,-4.99386 5.53942,-9.23236 0,-6.79838 -5.20369,-11.07884 -13.38693,-11.07884 h -14.14232 v 29.37571 h 9.90382 v -7.38588 h 2.68578 z m -0.0419,-18.29687 c 0,2.14023 -1.30094,3.44115 -4.02867,3.44115 h -3.60902 v -6.8823 h 3.60902 c 2.72773,0 4.02867,1.30092 4.02867,3.44115 z"
         id="path6572"
         style="font-weight:900;font-size:112px;line-height:1.25;font-family:Montserrat;-inkscape-font-specification:'Montserrat Heavy';font-variant-ligatures:none;display:inline;fill:#ffffff;fill-opacity:1;stroke:none;stroke-width:2.25168;stroke-dasharray:none;paint-order:stroke markers fill" /><path
         id="path6574"
         style="font-weight:900;font-size:112px;line-height:1.25;font-family:Montserrat;-inkscape-font-specification:'Montserrat Heavy';font-variant-ligatures:none;display:inline;fill:#ffffff;fill-opacity:1;fill-rule:nonzero;stroke:none;stroke-width:2.25151;stroke-dasharray:none;stroke-opacity:1;paint-order:stroke fill markers"
         d="m 246.34211,160.99759 -12.84119,29.37585 h 10.072 l 4.7129,-12.25354 h -0.0127 l 2.85334,-7.38622 7.6e-4,7.5e-4 0.15441,0.4003 2.69893,6.9852 h -0.0127 l 4.71217,12.25354 h 10.23956 l -12.84118,-29.37588 z" /><path
         d="m 263.7699,190.48587 h 14.47804 c 9.81988,0 16.5763,-5.5814 16.5763,-14.68788 0,-9.10647 -6.75642,-14.68785 -16.5763,-14.68785 H 263.7699 Z m 9.90382,-7.72163 v -13.93249 h 4.15457 c 4.15456,0 7.00821,2.47596 7.00821,6.96624 0,4.4903 -2.85365,6.96625 -7.00821,6.96625 z"
         id="path6576"
         style="font-weight:900;font-size:112px;line-height:1.25;font-family:Montserrat;-inkscape-font-specification:'Montserrat Heavy';font-variant-ligatures:none;display:inline;fill:#ffffff;fill-opacity:1;stroke:none;stroke-width:2.25168;stroke-dasharray:none;paint-order:stroke markers fill" /><path
         d="m 298.43326,190.48587 h 9.90382 v -29.37573 h -9.90382 z"
         id="path6578"
         style="font-weight:900;font-size:112px;line-height:1.25;font-family:Montserrat;-inkscape-font-specification:'Montserrat Heavy';font-variant-ligatures:none;display:inline;fill:#ffffff;fill-opacity:1;stroke:none;stroke-width:2.25168;stroke-dasharray:none;paint-order:stroke markers fill" /><path
         d="m 332.42518,190.48587 h 11.45653 l -12.3378,-16.45042 11.75029,-12.92531 h -10.78509 l -9.65202,10.65918 v -10.65918 h -9.73595 v 29.37573 h 9.73595 v -7.26002 l 2.22416,-2.47594 z"
         id="path6580"
         style="font-weight:900;font-size:112px;line-height:1.25;font-family:Montserrat;-inkscape-font-specification:'Montserrat Heavy';font-variant-ligatures:none;display:inline;fill:#ffffff;fill-opacity:1;stroke:none;stroke-width:2.25168;stroke-dasharray:none;paint-order:stroke markers fill" /><path
         d="m 379.3139,190.5607 h 23.16485 v -7.67967 h -13.26103 v -21.69606 h -9.90382 z"
         style="font-weight:900;font-size:112px;line-height:1.25;font-family:Montserrat;-inkscape-font-specification:'Montserrat Heavy';font-variant-ligatures:none;letter-spacing:0px;display:inline;fill:#ffffff;fill-opacity:1;stroke:none;stroke-width:2.25168;stroke-dasharray:none;paint-order:stroke markers fill"
         id="path6582" /><path
         d="m 405.9559,190.5607 h 9.90382 v -29.37573 h -9.90382 z"
         style="font-weight:900;font-size:112px;line-height:1.25;font-family:Montserrat;-inkscape-font-specification:'Montserrat Heavy';font-variant-ligatures:none;letter-spacing:0px;display:inline;fill:#ffffff;fill-opacity:1;stroke:none;stroke-width:2.25168;stroke-dasharray:none;paint-order:stroke markers fill"
         id="path6584" /><path
         d="m 435.83523,191.23214 c 5.74925,0 10.2815,-2.09826 13.17711,-5.87515 l -6.25284,-5.58139 c -1.72058,2.1822 -3.77688,3.44116 -6.42069,3.44116 -4.11261,0 -6.88232,-2.85365 -6.88232,-7.34394 0,-4.49028 2.76971,-7.34392 6.88232,-7.34392 2.64381,0 4.70011,1.25896 6.42069,3.44116 l 6.25284,-5.58139 c -2.89561,-3.77688 -7.42786,-5.87514 -13.17711,-5.87514 -9.4422,0 -16.36648,6.33676 -16.36648,15.35929 0,9.02255 6.92428,15.35932 16.36648,15.35932 z"
         style="font-weight:900;font-size:112px;line-height:1.25;font-family:Montserrat;-inkscape-font-specification:'Montserrat Heavy';font-variant-ligatures:none;letter-spacing:0px;display:inline;fill:#ffffff;fill-opacity:1;stroke:none;stroke-width:2.25168;stroke-dasharray:none;paint-order:stroke markers fill"
         id="path6586" /><path
         d="m 461.6019,183.09086 v -3.86081 h 12.42174 v -7.13409 H 461.6019 v -3.44117 h 14.14232 v -7.46982 h -23.87826 v 29.37573 h 24.42381 v -7.46984 z"
         style="font-weight:900;font-size:112px;line-height:1.25;font-family:Montserrat;-inkscape-font-specification:'Montserrat Heavy';font-variant-ligatures:none;letter-spacing:0px;display:inline;fill:#ffffff;fill-opacity:1;stroke:none;stroke-width:2.25168;stroke-dasharray:none;paint-order:stroke markers fill"
         id="path6588" /><path
         id="path5569"
         style="font-weight:900;font-size:112px;line-height:1.25;font-family:Montserrat;-inkscape-font-specification:'Montserrat Heavy';font-variant-ligatures:none;display:inline;fill:#ffffff;fill-opacity:1;stroke:none;stroke-width:2.25151;stroke-dasharray:none;stroke-opacity:1;paint-order:stroke fill markers"
         d="m 353.50323,161.10976 -12.84119,29.37588 h 10.07201 l 4.71289,-12.25355 h -0.0127 l 2.85335,-7.38623 7.5e-4,7.5e-4 0.15441,0.40031 2.69895,6.98518 h -0.0127 l 4.71217,12.25357 h 10.23956 l -12.84119,-29.37591 -4.86805,-11.24071 z"
         sodipodi:nodetypes="ccccccccccccccc" /><path
         d="m 240.42053,190.34409 -14.15708,-0.0187 0.022,-6.41665 11.59628,-0.0309 z"
         style="font-style:italic;font-weight:900;font-size:112.212px;line-height:1.25;font-family:Montserrat;-inkscape-font-specification:'Montserrat Heavy Italic';letter-spacing:0px;word-spacing:-3.72px;display:inline;fill:#ffffff;fill-opacity:1;stroke-width:1.14579"
         id="path2741"
         sodipodi:nodetypes="ccccc" /></g><path
       sodipodi:type="star"
       style="display:inline;fill:#ffffff;stroke:#000000;stroke-width:2.23794;stroke-linecap:round;stroke-linejoin:round;stroke-miterlimit:3.5;stroke-dasharray:none"
       id="path6064"
       inkscape:flatsided="false"
       sodipodi:sides="4"
       sodipodi:cx="609.49829"
       sodipodi:cy="0"
       sodipodi:r1="19.512674"
       sodipodi:r2="4.4488897"
       sodipodi:arg1="0"
       sodipodi:arg2="0.78539816"
       inkscape:rounded="7.2858386e-17"
       inkscape:randomized="0"
       d="M 629.01097,0 612.64413,3.1458401 609.49829,19.512674 606.35245,3.1458401 589.98562,0 l 16.36683,-3.1458401 3.14584,-16.3668339 3.14584,16.3668339 z"
       transform="matrix(0.26737955,0,0,0.26737955,195.31714,188.8551)"
       inkscape:label="uppercase-a-star" /><path
       id="circle2869"
       style="opacity:1;fill:#ffffff;stroke:#000000;stroke-width:1.33101;stroke-linecap:butt;stroke-linejoin:miter;stroke-miterlimit:6.7;stroke-dasharray:none;paint-order:stroke fill markers"
       d="m 306.70865,152.67337 c 1.25804,1.25805 1.25804,3.29775 0,4.5558 -1.25806,1.25805 -3.29775,1.25805 -4.5558,0 -1.25805,-1.25805 -2.56611,-1.81571 -2.56611,-1.81571 0,0 -0.95951,-0.54665 -1.43926,-0.81998 -0.46796,-0.26661 -1.40387,-0.79982 -1.40387,-0.79982 0,0 1.15744,0.0644 1.73616,0.0966 0.70149,0.039 2.10445,0.11713 2.10445,0.11713 l -5.861,-2.76426 6.36033,0.88593 -3.14387,-1.66634 c 0,0 7.98634,1.428 8.76897,2.21061 z"
       sodipodi:nodetypes="ssscacaccccs"
       inkscape:label="i-point" /></g></svg>
